<svg width="242" height="43" viewBox="0 0 242 43" fill="none" xmlns="http://www.w3.org/2000/svg">
<g filter="url(#filter0_d_74_18)">
<path d="M13.4438 31V9.55H36.9638V13.45H18.2438V18.19H35.2238V22.09H18.2438V27.1H36.9638V31H13.4438ZM38.4504 31L44.2704 23.29L38.4504 15.58H43.5504L48.0204 21.55H50.2104L54.7104 15.58H59.7804L53.9904 23.29L59.7804 31H54.7104L50.1804 25H48.0204L43.5504 31H38.4504ZM65.8538 31C64.2338 31 62.9938 30.59 62.1338 29.77C61.2738 28.95 60.8438 27.78 60.8438 26.26C60.8438 24.76 61.2738 23.6 62.1338 22.78C62.9938 21.96 64.2338 21.55 65.8538 21.55H77.3738V20.83C77.3738 19.61 76.7738 19 75.5738 19H62.8538V15.55H76.7138C78.5338 15.55 79.8238 15.97 80.5838 16.81C81.3438 17.63 81.7238 18.79 81.7238 20.29V31H65.8538ZM66.6338 27.55H77.3738V25H66.6338C66.2538 25 65.9538 25.12 65.7338 25.36C65.5338 25.58 65.4338 25.88 65.4338 26.26C65.4338 26.64 65.5338 26.95 65.7338 27.19C65.9538 27.43 66.2538 27.55 66.6338 27.55ZM85.0348 31V15.55H105.045C106.805 15.55 108.095 15.99 108.915 16.87C109.735 17.73 110.145 18.87 110.145 20.29V31H105.795V20.83C105.795 19.61 105.175 19 103.935 19H99.7648V31H95.4148V19H89.3848V31H85.0348Z" fill="#1B1818"/>
<path d="M13.4438 31V9.55H36.9638V13.45H18.2438V18.19H35.2238V22.09H18.2438V27.1H36.9638V31H13.4438ZM38.4504 31L44.2704 23.29L38.4504 15.58H43.5504L48.0204 21.55H50.2104L54.7104 15.58H59.7804L53.9904 23.29L59.7804 31H54.7104L50.1804 25H48.0204L43.5504 31H38.4504ZM65.8538 31C64.2338 31 62.9938 30.59 62.1338 29.77C61.2738 28.95 60.8438 27.78 60.8438 26.26C60.8438 24.76 61.2738 23.6 62.1338 22.78C62.9938 21.96 64.2338 21.55 65.8538 21.55H77.3738V20.83C77.3738 19.61 76.7738 19 75.5738 19H62.8538V15.55H76.7138C78.5338 15.55 79.8238 15.97 80.5838 16.81C81.3438 17.63 81.7238 18.79 81.7238 20.29V31H65.8538ZM66.6338 27.55H77.3738V25H66.6338C66.2538 25 65.9538 25.12 65.7338 25.36C65.5338 25.58 65.4338 25.88 65.4338 26.26C65.4338 26.64 65.5338 26.95 65.7338 27.19C65.9538 27.43 66.2538 27.55 66.6338 27.55ZM85.0348 31V15.55H105.045C106.805 15.55 108.095 15.99 108.915 16.87C109.735 17.73 110.145 18.87 110.145 20.29V31H105.795V20.83C105.795 19.61 105.175 19 103.935 19H99.7648V31H95.4148V19H89.3848V31H85.0348Z" fill="black" fill-opacity="0.2"/>
</g>
<g filter="url(#filter1_d_74_18)">
<path d="M115.851 31.15V27.25L133.101 27.28C133.981 27.28 134.651 27.08 135.111 26.68C135.591 26.26 135.831 25.59 135.831 24.67C135.831 23.75 135.591 23.09 135.111 22.69C134.651 22.27 133.981 22.06 133.101 22.06H122.361C120.141 22.06 118.411 21.53 117.171 20.47C115.951 19.39 115.341 17.81 115.341 15.73C115.341 13.65 115.951 12.08 117.171 11.02C118.411 9.94 120.141 9.4 122.361 9.4H139.221V13.3L122.871 13.27C122.011 13.27 121.341 13.47 120.861 13.87C120.381 14.25 120.141 14.87 120.141 15.73C120.141 16.59 120.381 17.22 120.861 17.62C121.341 18 122.011 18.19 122.871 18.19H133.611C135.831 18.19 137.551 18.74 138.771 19.84C140.011 20.92 140.631 22.53 140.631 24.67C140.631 26.79 140.011 28.4 138.771 29.5C137.551 30.6 135.831 31.15 133.611 31.15H115.851ZM151.231 31C149.491 31 148.211 30.57 147.391 29.71C146.571 28.83 146.161 27.68 146.161 26.26V19H141.691V15.55H146.161V10.81H150.511V15.55H156.931V19H150.511V25.72C150.511 26.94 151.111 27.55 152.311 27.55H157.771V31H151.231ZM164.927 31C163.167 31 161.877 30.56 161.057 29.68C160.257 28.8 159.857 27.66 159.857 26.26V15.55H164.207V25.75C164.207 26.95 164.807 27.55 166.007 27.55H172.247C173.447 27.55 174.047 26.95 174.047 25.75V15.55H178.397V26.26C178.397 27.66 177.987 28.8 177.167 29.68C176.367 30.56 175.087 31 173.327 31H164.927ZM200.561 31H196.211V9.55H200.561V31ZM199.811 31H189.461C186.781 31 184.691 30.34 183.191 29.02C181.691 27.7 180.941 25.79 180.941 23.29C180.941 20.77 181.691 18.85 183.191 17.53C184.691 16.21 186.781 15.55 189.461 15.55H199.511V19H189.461C188.161 19 187.161 19.36 186.461 20.08C185.781 20.78 185.441 21.85 185.441 23.29C185.441 24.71 185.781 25.78 186.461 26.5C187.161 27.2 188.161 27.55 189.461 27.55H199.811V31ZM203.865 31V15.55H208.215V31H203.865ZM203.835 13V9.61H208.245V13H203.835ZM219.431 31.15C216.751 31.15 214.661 30.49 213.161 29.17C211.661 27.83 210.911 25.87 210.911 23.29C210.911 20.69 211.661 18.73 213.161 17.41C214.661 16.07 216.751 15.4 219.431 15.4H224.981C227.661 15.4 229.751 16.07 231.251 17.41C232.751 18.73 233.501 20.69 233.501 23.29C233.501 25.87 232.751 27.83 231.251 29.17C229.751 30.49 227.661 31.15 224.981 31.15H219.431ZM219.431 27.7H224.981C226.281 27.7 227.271 27.34 227.951 26.62C228.651 25.9 229.001 24.79 229.001 23.29C229.001 21.77 228.651 20.65 227.951 19.93C227.271 19.21 226.281 18.85 224.981 18.85H219.431C218.131 18.85 217.131 19.21 216.431 19.93C215.751 20.65 215.411 21.77 215.411 23.29C215.411 24.79 215.751 25.9 216.431 26.62C217.131 27.34 218.131 27.7 219.431 27.7Z" fill="#FFFCFC"/>
</g>
<defs>
<filter id="filter0_d_74_18" x="13.4437" y="9.55" width="104.701" height="29.45" filterUnits="userSpaceOnUse" color-interpolation-filters="sRGB">
<feFlood flood-opacity="0" result="BackgroundImageFix"/>
<feColorMatrix in="SourceAlpha" type="matrix" values="0 0 0 0 0 0 0 0 0 0 0 0 0 0 0 0 0 0 127 0" result="hardAlpha"/>
<feOffset dx="4" dy="4"/>
<feGaussianBlur stdDeviation="2"/>
<feComposite in2="hardAlpha" operator="out"/>
<feColorMatrix type="matrix" values="0 0 0 0 0 0 0 0 0 0 0 0 0 0 0 0 0 0 0.25 0"/>
<feBlend mode="darken" in2="BackgroundImageFix" result="effect1_dropShadow_74_18"/>
<feBlend mode="normal" in="SourceGraphic" in2="effect1_dropShadow_74_18" result="shape"/>
</filter>
<filter id="filter1_d_74_18" x="115.341" y="9.39999" width="126.16" height="29.75" filterUnits="userSpaceOnUse" color-interpolation-filters="sRGB">
<feFlood flood-opacity="0" result="BackgroundImageFix"/>
<feColorMatrix in="SourceAlpha" type="matrix" values="0 0 0 0 0 0 0 0 0 0 0 0 0 0 0 0 0 0 127 0" result="hardAlpha"/>
<feOffset dx="4" dy="4"/>
<feGaussianBlur stdDeviation="2"/>
<feComposite in2="hardAlpha" operator="out"/>
<feColorMatrix type="matrix" values="0 0 0 0 0 0 0 0 0 0 0 0 0 0 0 0 0 0 0.25 0"/>
<feBlend mode="darken" in2="BackgroundImageFix" result="effect1_dropShadow_74_18"/>
<feBlend mode="normal" in="SourceGraphic" in2="effect1_dropShadow_74_18" result="shape"/>
</filter>
</defs>
</svg>
