<svg width="194" height="194" viewBox="0 0 194 194" fill="none" xmlns="http://www.w3.org/2000/svg">
<circle cx="97" cy="97" r="97" fill="url(#paint0_linear_75_33)"/>
<path d="M22.4406 127V62.65H93.0006V74.35H36.8406V88.57H87.7806V100.27H36.8406V115.3H93.0006V127H22.4406ZM100.791 127.45V115.75L152.541 115.84C155.181 115.84 157.191 115.24 158.571 114.04C160.011 112.78 160.731 110.77 160.731 108.01C160.731 105.25 160.011 103.27 158.571 102.07C157.191 100.81 155.181 100.18 152.541 100.18H120.321C113.661 100.18 108.471 98.59 104.751 95.41C101.091 92.17 99.2605 87.43 99.2605 81.19C99.2605 74.95 101.091 70.24 104.751 67.06C108.471 63.82 113.661 62.2 120.321 62.2H170.901V73.9L121.851 73.81C119.271 73.81 117.261 74.41 115.821 75.61C114.381 76.75 113.661 78.61 113.661 81.19C113.661 83.77 114.381 85.66 115.821 86.86C117.261 88 119.271 88.57 121.851 88.57H154.071C160.731 88.57 165.891 90.22 169.551 93.52C173.271 96.76 175.131 101.59 175.131 108.01C175.131 114.37 173.271 119.2 169.551 122.5C165.891 125.8 160.731 127.45 154.071 127.45H100.791Z" fill="white"/>
<defs>
<linearGradient id="paint0_linear_75_33" x1="31.5" y1="31" x2="173" y2="194" gradientUnits="userSpaceOnUse">
<stop stop-color="#C227EE"/>
<stop offset="1" stop-color="#5930F3" stop-opacity="0.82"/>
</linearGradient>
</defs>
</svg>
